{"title":"Love.Happens.2009.SWESUB.DVDRip.XviD.-Zen_Bud","uid":5665992,"size":1467901952,"categoryP":"video","categoryS":"movies","magnet":"?xt=urn:btih:b17ac041c5bd6827458370ccd2190b6eb1739c5a&amp;dn=Love.Happens.2009.SWESUB.DVDRip.XviD.-Zen_Bud&amp;tr=udp%3A%2F%2Ftracker.openbittorrent.com%3A80&amp;tr=udp%3A%2F%2Fopen.demonii.com%3A1337&amp;tr=udp%3A%2F%2Ftracker.coppersurfer.tk%3A6969&amp;tr=udp%3A%2F%2Fexodus.desync.com%3A6969","seeders":1,"leechers":0,"uploader":"Zen_Bud","files":-1,"time":1278145493,"description":"General\nComplete name                    : Love.Happens.2009.avi\nFormat                           : AVI\nFormat/Info                      : Audio Video Interleave\nFile size                        : 1.37 GiB\nDuration                         : 1h 44mn\nOverall bit rate                 : 1 872 Kbps\nWriting application              : VirtualDubMod 1.5.10.2 (build 2542/release)\nWriting library                  : VirtualDubMod build 2542/release\n\nVideo\nID                               : 0\nFormat                           : MPEG-4 Visual\nCodec ID/Hint                    : XviD\nDuration                         : 1h 44mn\nBit rate                         : 1 736 Kbps\nWidth                            : 688 pixels\nHeight                           : 384 pixels\nDisplay aspect ratio             : 16:9\nStream size                      : 1.27 GiB (93%)\nWriting library                  : XviD 1.2.1 (UTC 2008-12-04)\n\nAudio\n\nFormat                           : MPEG Audio\nCodec ID/Hint                    : MP3\nDuration                         : 1h 44mn\nBit rate                         : 123 Kbps\nChannel(s)                       : 2 channels\nSampling rate                    : 48.0 KHz\nStream size                      : 91.9 MiB (7%)\nWriting library                  : LAME3.98r\n\n\n","torrent":{"xt":"urn:btih:b17ac041c5bd6827458370ccd2190b6eb1739c5a","amp;dn":"Love.Happens.2009.SWESUB.DVDRip.XviD.-Zen_Bud","amp;tr":["udp%3A%2F%2Ftracker.openbittorrent.com%3A80","udp%3A%2F%2Fopen.demonii.com%3A1337","udp%3A%2F%2Ftracker.coppersurfer.tk%3A6969","udp%3A%2F%2Fexodus.desync.com%3A6969"],"infoHash":"b17ac041c5bd6827458370ccd2190b6eb1739c5a","infoHashBuffer":{"type":"Buffer","data":[177,122,192,65,197,189,104,39,69,131,112,204,210,25,11,110,177,115,156,90]},"announce":[],"urlList":[]}}